<svg xmlns="http://www.w3.org/2000/svg" viewBox="0 0 512 512">
  <defs>
    <linearGradient id="g" x1="80" y1="56" x2="444" y2="456" gradientUnits="userSpaceOnUse">
      <stop stop-color="#173f3a"/>
      <stop offset="1" stop-color="#0b211f"/>
    </linearGradient>
    <linearGradient id="a" x1="150" y1="132" x2="360" y2="384" gradientUnits="userSpaceOnUse">
      <stop stop-color="#f0bf5d"/>
      <stop offset="1" stop-color="#c77752"/>
    </linearGradient>
  </defs>
  <rect width="512" height="512" rx="116" fill="url(#g)"/>
  <circle cx="256" cy="256" r="174" fill="none" stroke="#ffffff" stroke-opacity=".12" stroke-width="20"/>
  <path d="M256 104 378 154v92c0 83-50 137-122 166-72-29-122-83-122-166v-92l122-50Z" fill="url(#a)"/>
  <path d="M204 251h104M204 294h104M204 208h104" stroke="#173f3a" stroke-width="24" stroke-linecap="round"/>
  <path d="M171 161h170v209H171z" fill="#fff7e8" opacity=".93"/>
  <path d="M210 220h92M210 264h92M210 308h64" stroke="#173f3a" stroke-width="18" stroke-linecap="round"/>
  <path d="M344 153v216" stroke="#173f3a" stroke-opacity=".16" stroke-width="18"/>
</svg>
